<mxfile host="app.diagrams.net" agent="Mozilla/5.0 (Macintosh; Intel Mac OS X 10_15_7) AppleWebKit/537.36 (KHTML, like Gecko) Chrome/132.0.0.0 Safari/537.36" version="26.0.14">
  <diagram name="Data Architects" id="F0pCXo6BIPKkgkiDULUO">
    <mxGraphModel grid="1" page="1" gridSize="10" guides="1" tooltips="1" connect="1" arrows="1" fold="1" pageScale="1" pageWidth="827" pageHeight="1169" math="0" shadow="0">
      <root>
        <mxCell id="0" />
        <mxCell id="1" parent="0" />
        <mxCell id="T6LOzxxRdkaR8oqZ5aBJ-1" value="" style="rounded=0;whiteSpace=wrap;html=1;fillColor=none;dashed=1;" vertex="1" parent="1">
          <mxGeometry x="57" y="80" width="120" height="600" as="geometry" />
        </mxCell>
        <mxCell id="T6LOzxxRdkaR8oqZ5aBJ-2" value="&lt;font style=&quot;&quot;&gt;&lt;font style=&quot;font-size: 18px;&quot;&gt;Sources&lt;/font&gt;&lt;/font&gt;" style="rounded=0;whiteSpace=wrap;html=1;strokeColor=none;" vertex="1" parent="1">
          <mxGeometry x="70" y="65" width="70" height="30" as="geometry" />
        </mxCell>
        <mxCell id="T6LOzxxRdkaR8oqZ5aBJ-3" value="" style="rounded=0;whiteSpace=wrap;html=1;fillColor=none;dashed=1;" vertex="1" parent="1">
          <mxGeometry x="200" y="80" width="460" height="600" as="geometry" />
        </mxCell>
        <mxCell id="T6LOzxxRdkaR8oqZ5aBJ-4" value="&lt;font style=&quot;font-size: 18px;&quot;&gt;Data Warehouse&lt;/font&gt;" style="rounded=0;whiteSpace=wrap;html=1;strokeColor=none;" vertex="1" parent="1">
          <mxGeometry x="370" y="65" width="150" height="30" as="geometry" />
        </mxCell>
        <mxCell id="T6LOzxxRdkaR8oqZ5aBJ-5" value="" style="rounded=0;whiteSpace=wrap;html=1;fillColor=none;dashed=1;" vertex="1" parent="1">
          <mxGeometry x="680" y="80" width="120" height="600" as="geometry" />
        </mxCell>
        <mxCell id="T6LOzxxRdkaR8oqZ5aBJ-6" value="&lt;font style=&quot;&quot;&gt;&lt;font style=&quot;font-size: 18px;&quot;&gt;Consume&lt;/font&gt;&lt;/font&gt;" style="rounded=0;whiteSpace=wrap;html=1;strokeColor=none;" vertex="1" parent="1">
          <mxGeometry x="710" y="65" width="70" height="30" as="geometry" />
        </mxCell>
        <mxCell id="T6LOzxxRdkaR8oqZ5aBJ-7" value="&lt;font&gt;Bronze Layer&lt;/font&gt;" style="rounded=0;whiteSpace=wrap;html=1;fillColor=#ffe6cc;strokeColor=#d79b00;" vertex="1" parent="1">
          <mxGeometry x="220" y="120" width="130" height="20" as="geometry" />
        </mxCell>
        <mxCell id="T6LOzxxRdkaR8oqZ5aBJ-8" value="" style="rounded=0;whiteSpace=wrap;html=1;fillColor=none;strokeColor=#d79b00;" vertex="1" parent="1">
          <mxGeometry x="220" y="150" width="130" height="490" as="geometry" />
        </mxCell>
        <mxCell id="T6LOzxxRdkaR8oqZ5aBJ-9" value="&lt;font&gt;Silver Layer&lt;/font&gt;" style="rounded=0;whiteSpace=wrap;html=1;fillColor=#f5f5f5;strokeColor=#666666;fontColor=#333333;" vertex="1" parent="1">
          <mxGeometry x="370" y="120" width="140" height="20" as="geometry" />
        </mxCell>
        <mxCell id="T6LOzxxRdkaR8oqZ5aBJ-10" value="" style="rounded=0;whiteSpace=wrap;html=1;fillColor=none;strokeColor=#666666;fontColor=#333333;" vertex="1" parent="1">
          <mxGeometry x="370" y="150" width="140" height="490" as="geometry" />
        </mxCell>
        <mxCell id="T6LOzxxRdkaR8oqZ5aBJ-11" value="&lt;font&gt;Gold Layer&lt;/font&gt;" style="rounded=0;whiteSpace=wrap;html=1;fillColor=#fff2cc;strokeColor=#d6b656;" vertex="1" parent="1">
          <mxGeometry x="530" y="120" width="120" height="20" as="geometry" />
        </mxCell>
        <mxCell id="T6LOzxxRdkaR8oqZ5aBJ-12" value="" style="rounded=0;whiteSpace=wrap;html=1;fillColor=none;strokeColor=#d6b656;" vertex="1" parent="1">
          <mxGeometry x="530" y="150" width="120" height="490" as="geometry" />
        </mxCell>
        <mxCell id="T6LOzxxRdkaR8oqZ5aBJ-13" value="" style="image;aspect=fixed;html=1;points=[];align=center;fontSize=12;image=img/lib/azure2/general/Folder_Blank.svg;" vertex="1" parent="1">
          <mxGeometry x="98.52" y="210" width="36.96" height="30" as="geometry" />
        </mxCell>
        <mxCell id="T6LOzxxRdkaR8oqZ5aBJ-14" value="" style="image;aspect=fixed;html=1;points=[];align=center;fontSize=12;image=img/lib/azure2/general/File.svg;" vertex="1" parent="1">
          <mxGeometry x="123" y="227.32" width="14.35" height="17.68" as="geometry" />
        </mxCell>
        <mxCell id="T6LOzxxRdkaR8oqZ5aBJ-15" value="&lt;font style=&quot;font-size: 9px;&quot;&gt;&lt;b style=&quot;&quot;&gt;CRM&lt;/b&gt;&lt;/font&gt;" style="rounded=0;whiteSpace=wrap;html=1;strokeColor=none;fillColor=none;" vertex="1" parent="1">
          <mxGeometry x="97.48" y="240" width="40" height="20" as="geometry" />
        </mxCell>
        <mxCell id="T6LOzxxRdkaR8oqZ5aBJ-16" value="" style="image;aspect=fixed;html=1;points=[];align=center;fontSize=12;image=img/lib/azure2/general/Folder_Blank.svg;" vertex="1" parent="1">
          <mxGeometry x="99.03999999999999" y="290" width="36.96" height="30" as="geometry" />
        </mxCell>
        <mxCell id="T6LOzxxRdkaR8oqZ5aBJ-17" value="" style="image;aspect=fixed;html=1;points=[];align=center;fontSize=12;image=img/lib/azure2/general/File.svg;" vertex="1" parent="1">
          <mxGeometry x="123.52" y="307.32" width="14.35" height="17.68" as="geometry" />
        </mxCell>
        <mxCell id="T6LOzxxRdkaR8oqZ5aBJ-18" value="&lt;font style=&quot;font-size: 9px;&quot;&gt;&lt;b style=&quot;&quot;&gt;ERP&lt;/b&gt;&lt;/font&gt;" style="rounded=0;whiteSpace=wrap;html=1;strokeColor=none;fillColor=none;" vertex="1" parent="1">
          <mxGeometry x="98" y="320" width="40" height="20" as="geometry" />
        </mxCell>
        <mxCell id="T6LOzxxRdkaR8oqZ5aBJ-19" value="" style="endArrow=none;html=1;rounded=0;exitX=0.25;exitY=0.775;exitDx=0;exitDy=0;exitPerimeter=0;" edge="1" parent="1">
          <mxGeometry width="50" height="50" relative="1" as="geometry">
            <mxPoint x="87" y="360" as="sourcePoint" />
            <mxPoint x="157" y="360" as="targetPoint" />
          </mxGeometry>
        </mxCell>
        <mxCell id="T6LOzxxRdkaR8oqZ5aBJ-20" value="&lt;font style=&quot;font-size: 9px;&quot;&gt;&lt;b style=&quot;&quot;&gt;Object Type:&lt;/b&gt; CSV file&lt;/font&gt;&lt;div&gt;&lt;font style=&quot;font-size: 9px;&quot;&gt;&lt;b style=&quot;&quot;&gt;Interface:&lt;/b&gt; Files in Folder&lt;/font&gt;&lt;/div&gt;" style="rounded=0;whiteSpace=wrap;html=1;align=left;strokeColor=none;fillColor=none;" vertex="1" parent="1">
          <mxGeometry x="62" y="370" width="120" height="30" as="geometry" />
        </mxCell>
        <mxCell id="T6LOzxxRdkaR8oqZ5aBJ-22" value="" style="html=1;verticalLabelPosition=bottom;align=center;labelBackgroundColor=#ffffff;verticalAlign=top;strokeWidth=2;strokeColor=#d79b00;shadow=0;dashed=0;shape=mxgraph.ios7.icons.data;fillColor=#ffe6cc;" vertex="1" parent="1">
          <mxGeometry x="271" y="244.9" width="40" height="49.1" as="geometry" />
        </mxCell>
        <mxCell id="T6LOzxxRdkaR8oqZ5aBJ-23" value="" style="html=1;verticalLabelPosition=bottom;align=center;labelBackgroundColor=#ffffff;verticalAlign=top;strokeWidth=2;strokeColor=#666666;shadow=0;dashed=0;shape=mxgraph.ios7.icons.data;fillColor=#f5f5f5;fontColor=#333333;" vertex="1" parent="1">
          <mxGeometry x="420.5" y="245" width="40" height="49.1" as="geometry" />
        </mxCell>
        <mxCell id="T6LOzxxRdkaR8oqZ5aBJ-24" value="" style="html=1;verticalLabelPosition=bottom;align=center;labelBackgroundColor=#ffffff;verticalAlign=top;strokeWidth=2;strokeColor=#d6b656;shadow=0;dashed=0;shape=mxgraph.ios7.icons.data;fillColor=#fff2cc;" vertex="1" parent="1">
          <mxGeometry x="570" y="245" width="40" height="49.1" as="geometry" />
        </mxCell>
        <mxCell id="T6LOzxxRdkaR8oqZ5aBJ-26" value="" style="html=1;shadow=0;dashed=0;align=center;verticalAlign=middle;shape=mxgraph.arrows2.arrow;dy=0.63;dx=22;notch=0;" vertex="1" parent="1">
          <mxGeometry x="341" y="254.55" width="59" height="30" as="geometry" />
        </mxCell>
        <mxCell id="T6LOzxxRdkaR8oqZ5aBJ-28" value="" style="html=1;shadow=0;dashed=0;align=center;verticalAlign=middle;shape=mxgraph.arrows2.arrow;dy=0.63;dx=22;notch=0;" vertex="1" parent="1">
          <mxGeometry x="492" y="254.55" width="59" height="30" as="geometry" />
        </mxCell>
        <mxCell id="T6LOzxxRdkaR8oqZ5aBJ-29" value="" style="html=1;shadow=0;dashed=0;align=center;verticalAlign=middle;shape=mxgraph.arrows2.arrow;dy=0.63;dx=22;notch=0;" vertex="1" parent="1">
          <mxGeometry x="180" y="254.55" width="59" height="30" as="geometry" />
        </mxCell>
        <mxCell id="T6LOzxxRdkaR8oqZ5aBJ-30" value="" style="html=1;shadow=0;dashed=0;align=center;verticalAlign=middle;shape=mxgraph.arrows2.arrow;dy=0.63;dx=22;notch=0;" vertex="1" parent="1">
          <mxGeometry x="630" y="254.55" width="59" height="30" as="geometry" />
        </mxCell>
        <mxCell id="T6LOzxxRdkaR8oqZ5aBJ-31" value="Row Data" style="text;html=1;align=center;verticalAlign=middle;whiteSpace=wrap;rounded=0;" vertex="1" parent="1">
          <mxGeometry x="261" y="295" width="60" height="30" as="geometry" />
        </mxCell>
        <mxCell id="T6LOzxxRdkaR8oqZ5aBJ-32" value="Cleaned, Standardized Data" style="text;html=1;align=center;verticalAlign=middle;whiteSpace=wrap;rounded=0;" vertex="1" parent="1">
          <mxGeometry x="414" y="307.32" width="60" height="30" as="geometry" />
        </mxCell>
        <mxCell id="T6LOzxxRdkaR8oqZ5aBJ-33" value="Business Ready Data" style="text;html=1;align=center;verticalAlign=middle;whiteSpace=wrap;rounded=0;" vertex="1" parent="1">
          <mxGeometry x="560" y="307.32" width="60" height="30" as="geometry" />
        </mxCell>
        <mxCell id="T6LOzxxRdkaR8oqZ5aBJ-34" value="" style="endArrow=none;html=1;rounded=0;exitX=0.25;exitY=0.775;exitDx=0;exitDy=0;exitPerimeter=0;fillColor=#ffe6cc;strokeColor=#d79b00;" edge="1" parent="1">
          <mxGeometry width="50" height="50" relative="1" as="geometry">
            <mxPoint x="235" y="360" as="sourcePoint" />
            <mxPoint x="305" y="360" as="targetPoint" />
          </mxGeometry>
        </mxCell>
        <mxCell id="T6LOzxxRdkaR8oqZ5aBJ-35" value="" style="endArrow=none;html=1;rounded=0;exitX=0.25;exitY=0.775;exitDx=0;exitDy=0;exitPerimeter=0;fillColor=#f5f5f5;strokeColor=#666666;" edge="1" parent="1">
          <mxGeometry width="50" height="50" relative="1" as="geometry">
            <mxPoint x="409" y="360" as="sourcePoint" />
            <mxPoint x="479" y="360" as="targetPoint" />
          </mxGeometry>
        </mxCell>
        <mxCell id="T6LOzxxRdkaR8oqZ5aBJ-36" value="" style="endArrow=none;html=1;rounded=0;exitX=0.25;exitY=0.775;exitDx=0;exitDy=0;exitPerimeter=0;fillColor=#fff2cc;strokeColor=#d6b656;" edge="1" parent="1">
          <mxGeometry width="50" height="50" relative="1" as="geometry">
            <mxPoint x="555" y="360" as="sourcePoint" />
            <mxPoint x="625" y="360" as="targetPoint" />
          </mxGeometry>
        </mxCell>
        <mxCell id="T6LOzxxRdkaR8oqZ5aBJ-37" value="&lt;font style=&quot;font-size: 9px;&quot;&gt;&lt;b style=&quot;&quot;&gt;Object Type:&lt;/b&gt;&amp;nbsp; Tables&lt;/font&gt;&lt;div&gt;&lt;font style=&quot;font-size: 9px;&quot;&gt;&lt;b style=&quot;&quot;&gt;Load:&lt;/b&gt;&amp;nbsp;&lt;/font&gt;&lt;/div&gt;&lt;div&gt;&lt;ul style=&quot;padding-left: 20px;&quot;&gt;&lt;li&gt;&lt;span style=&quot;font-size: 9px; background-color: transparent; color: light-dark(rgb(0, 0, 0), rgb(255, 255, 255));&quot;&gt;Batch Processing&lt;/span&gt;&lt;/li&gt;&lt;li&gt;&lt;span style=&quot;font-size: 9px; background-color: transparent; color: light-dark(rgb(0, 0, 0), rgb(255, 255, 255));&quot;&gt;Full Load&lt;/span&gt;&lt;/li&gt;&lt;li&gt;&lt;span style=&quot;font-size: 9px; background-color: transparent; color: light-dark(rgb(0, 0, 0), rgb(255, 255, 255));&quot;&gt;Truncate &amp;amp; Insert&lt;/span&gt;&lt;/li&gt;&lt;/ul&gt;&lt;div&gt;&lt;font size=&quot;1&quot;&gt;No &lt;b&gt;Transformations&lt;/b&gt;&lt;/font&gt;&lt;/div&gt;&lt;/div&gt;&lt;div&gt;&lt;font size=&quot;1&quot;&gt;&lt;b&gt;&lt;br&gt;&lt;/b&gt;&lt;/font&gt;&lt;/div&gt;&lt;div&gt;&lt;font size=&quot;1&quot;&gt;&lt;b&gt;Data Model: &lt;/b&gt;None (as-is)&lt;/font&gt;&lt;/div&gt;" style="rounded=0;whiteSpace=wrap;html=1;align=left;strokeColor=none;fillColor=none;" vertex="1" parent="1">
          <mxGeometry x="230" y="430" width="140" height="30" as="geometry" />
        </mxCell>
        <mxCell id="T6LOzxxRdkaR8oqZ5aBJ-39" value="&lt;font style=&quot;font-size: 9px;&quot;&gt;&lt;b style=&quot;&quot;&gt;Object Type:&lt;/b&gt;&amp;nbsp; Tables&lt;/font&gt;&lt;div&gt;&lt;font style=&quot;font-size: 9px;&quot;&gt;&lt;b style=&quot;&quot;&gt;Load:&lt;/b&gt;&amp;nbsp;&lt;/font&gt;&lt;/div&gt;&lt;div&gt;&lt;ul style=&quot;padding-left: 20px;&quot;&gt;&lt;li&gt;&lt;span style=&quot;font-size: 9px; background-color: transparent; color: light-dark(rgb(0, 0, 0), rgb(255, 255, 255));&quot;&gt;Batch Processing&lt;/span&gt;&lt;/li&gt;&lt;li&gt;&lt;span style=&quot;font-size: 9px; background-color: transparent; color: light-dark(rgb(0, 0, 0), rgb(255, 255, 255));&quot;&gt;Full Load&lt;/span&gt;&lt;/li&gt;&lt;li&gt;&lt;span style=&quot;font-size: 9px; background-color: transparent; color: light-dark(rgb(0, 0, 0), rgb(255, 255, 255));&quot;&gt;Truncate &amp;amp; Insert&lt;/span&gt;&lt;/li&gt;&lt;/ul&gt;&lt;div&gt;&lt;font size=&quot;1&quot;&gt;&lt;b&gt;Transformations:&lt;/b&gt;&lt;/font&gt;&lt;/div&gt;&lt;/div&gt;&lt;div&gt;&lt;ul style=&quot;padding-left: 20px;&quot;&gt;&lt;li&gt;&lt;font size=&quot;1&quot;&gt;Data Cleaning&lt;/font&gt;&lt;/li&gt;&lt;li&gt;&lt;font size=&quot;1&quot;&gt;Data Standrization&lt;/font&gt;&lt;/li&gt;&lt;li&gt;&lt;font size=&quot;1&quot;&gt;Data Normalization&lt;/font&gt;&lt;/li&gt;&lt;li&gt;&lt;font size=&quot;1&quot;&gt;Derived Columns&lt;/font&gt;&lt;/li&gt;&lt;li&gt;&lt;font size=&quot;1&quot;&gt;Data Enrichment&lt;/font&gt;&lt;/li&gt;&lt;/ul&gt;&lt;/div&gt;&lt;div&gt;&lt;font size=&quot;1&quot;&gt;&lt;b&gt;&lt;br&gt;&lt;/b&gt;&lt;/font&gt;&lt;/div&gt;&lt;div&gt;&lt;font size=&quot;1&quot;&gt;&lt;b&gt;Data Model: &lt;/b&gt;None (as-is)&lt;/font&gt;&lt;/div&gt;" style="rounded=0;whiteSpace=wrap;html=1;align=left;strokeColor=none;fillColor=none;" vertex="1" parent="1">
          <mxGeometry x="386" y="476" width="140" height="30" as="geometry" />
        </mxCell>
        <mxCell id="T6LOzxxRdkaR8oqZ5aBJ-40" value="&lt;font style=&quot;font-size: 9px;&quot;&gt;&lt;b style=&quot;&quot;&gt;Object Type:&lt;/b&gt;&amp;nbsp; Views&lt;/font&gt;&lt;div&gt;&lt;font size=&quot;1&quot;&gt;&lt;br&gt;&lt;/font&gt;&lt;font style=&quot;font-size: 9px;&quot;&gt;&lt;/font&gt;&lt;div&gt;&lt;font style=&quot;font-size: 9px;&quot;&gt;No&lt;b style=&quot;&quot;&gt; Load:&lt;/b&gt;&amp;nbsp;&lt;/font&gt;&lt;/div&gt;&lt;div&gt;&lt;font style=&quot;font-size: 9px;&quot;&gt;&lt;br&gt;&lt;/font&gt;&lt;/div&gt;&lt;div&gt;&lt;div&gt;&lt;font size=&quot;1&quot;&gt;&lt;b&gt;Transformations:&lt;/b&gt;&lt;/font&gt;&lt;/div&gt;&lt;/div&gt;&lt;div&gt;&lt;ul style=&quot;padding-left: 20px;&quot;&gt;&lt;li&gt;&lt;font size=&quot;1&quot;&gt;Data Integrations&lt;/font&gt;&lt;/li&gt;&lt;li&gt;&lt;font size=&quot;1&quot;&gt;Aggregations&lt;/font&gt;&lt;/li&gt;&lt;li&gt;&lt;font size=&quot;1&quot;&gt;Business Logics&lt;/font&gt;&lt;/li&gt;&lt;/ul&gt;&lt;/div&gt;&lt;div&gt;&lt;font size=&quot;1&quot;&gt;&lt;b&gt;&lt;br&gt;&lt;/b&gt;&lt;/font&gt;&lt;/div&gt;&lt;div&gt;&lt;font size=&quot;1&quot;&gt;&lt;b&gt;Data Model:&amp;nbsp;&lt;/b&gt;&lt;/font&gt;&lt;/div&gt;&lt;/div&gt;&lt;div&gt;&lt;ul style=&quot;padding-left: 20px;&quot;&gt;&lt;li&gt;&lt;font size=&quot;1&quot;&gt;Star Schema&lt;/font&gt;&lt;/li&gt;&lt;li&gt;&lt;font size=&quot;1&quot;&gt;Flat Table&lt;/font&gt;&lt;/li&gt;&lt;li&gt;&lt;font size=&quot;1&quot;&gt;Aggregated Table&lt;/font&gt;&lt;/li&gt;&lt;/ul&gt;&lt;/div&gt;" style="rounded=0;whiteSpace=wrap;html=1;align=left;strokeColor=none;fillColor=none;" vertex="1" parent="1">
          <mxGeometry x="540" y="476" width="140" height="30" as="geometry" />
        </mxCell>
        <mxCell id="T6LOzxxRdkaR8oqZ5aBJ-41" value="" style="image;aspect=fixed;html=1;points=[];align=center;fontSize=12;image=img/lib/azure2/power_platform/PowerBI.svg;" vertex="1" parent="1">
          <mxGeometry x="690" y="200" width="37.5" height="50" as="geometry" />
        </mxCell>
        <mxCell id="T6LOzxxRdkaR8oqZ5aBJ-42" value="" style="shape=image;verticalLabelPosition=bottom;labelBackgroundColor=default;verticalAlign=top;aspect=fixed;imageAspect=0;editableCssRules=.*;image=data:image/svg+xml,PHN2ZyB4bWxuczp4bGluaz0iaHR0cDovL3d3dy53My5vcmcvMTk5OS94bGluayIgeG1sbnM9Imh0dHA6Ly93d3cudzMub3JnLzIwMDAvc3ZnIiBwcmVzZXJ2ZUFzcGVjdFJhdGlvPSJ4TWlkWU1pZCIgdmVyc2lvbj0iMS4xIiB2aWV3Qm94PSIwIDAgMjU1Ljk5Nzc3MjIxNjc5Njg4IDI1MC43OTI2MzMwNTY2NDA2MiIgaGVpZ2h0PSI3ODMuNzI2OTc4MzAyMDAyIiB3aWR0aD0iNzk5Ljk5MzAzODE3NzQ5MDIiPiYjeGE7ICAgIDxnPiYjeGE7ICAgICAgICA8cG9seWdvbiBwb2ludHM9IjEyMy45Mjk0MTcgMTEuNTkzMjQ0NCAxMjMuOTI5NDE3IDIzLjIzMzgwODMgMTAzLjEwODg5NyAyMy4yMzM4MDgzIDEwMy4xMDg4OTcgMzAuODA0OTA2NyAxMjMuOTI5NDE3IDMwLjgwNDkwNjcgMTIzLjkyOTQxNyA1My45OTEzOTU2IDEzMi4wNjgzNDggNTMuOTkxMzk1NiAxMzIuMDY4MzQ4IDMwLjgwNDkwNjcgMTUzLjQwOTM4MiAzMC44MDQ5MDY3IDE1My40MDkzODIgMjMuMjMzODA4MyAxMzIuMDY4MzQ4IDIzLjIzMzgwODMgMTMyLjA2ODM0OCAwIDEyMy45Mjk0MTcgMCIgZmlsbD0iIzcwOTlBNiI+JiN4YTsmI3hhOzwvcG9seWdvbj4mI3hhOyAgICAgICAgPHBvbHlnb24gcG9pbnRzPSI1NS44ODQxNzAyIDQxLjEyMDUyODMgNTUuODg0MTcwMiA1OC4wMTM1NDE2IDI0LjM2OTQ3MyA1OC4wMTM1NDE2IDI0LjM2OTQ3MyA2OC42MTMwNzk0IDU1Ljg4NDE3MDIgNjguNjEzMDc5NCA1NS44ODQxNzAyIDEwMi45MTk2MTkgNjcuNTcyMDUzMyAxMDIuOTE5NjE5IDY3LjU3MjA1MzMgNjguNjEzMDc5NCA5OS41NTk5NDQxIDY4LjYxMzA3OTQgOTkuNTU5OTQ0MSA1OC4wMTM1NDE2IDY3LjU3MjA1MzMgNTguMDEzNTQxNiA2Ny41NzIwNTMzIDI0LjIyNzUxNDkgNTUuODg0MTcwMiAyNC4yMjc1MTQ5IiBmaWxsPSIjRUI5MTJDIj4mI3hhOyYjeGE7PC9wb2x5Z29uPiYjeGE7ICAgICAgICA8cG9seWdvbiBwb2ludHM9IjE4Ny45NTI1MTggNDEuMTIwNTI4MyAxODcuOTUyNTE4IDU4LjAxMzU0MTYgMTU2LjQzNzgyMSA1OC4wMTM1NDE2IDE1Ni40Mzc4MjEgNjkuMTMzNTkyNCAxODcuOTUyNTE4IDY5LjEzMzU5MjQgMTg3Ljk1MjUxOCAxMDIuOTE5NjE5IDIwMC4xMTM1OTUgMTAyLjkxOTYxOSAyMDAuMTEzNTk1IDY5LjEzMzU5MjQgMjMxLjYyODI5MiA2OS4xMzM1OTI0IDIzMS42MjgyOTIgNTguMDEzNTQxNiAyMDAuMTEzNTk1IDU4LjAxMzU0MTYgMjAwLjExMzU5NSAyNC4yMjc1MTQ5IDE4Ny45NTI1MTggMjQuMjI3NTE0OSIgZmlsbD0iIzU5ODc5QiI+JiN4YTsmI3hhOzwvcG9seWdvbj4mI3hhOyAgICAgICAgPHBvbHlnb24gcG9pbnRzPSIxMjAuOTAwOTc4IDk4LjY2MDg3NjIgMTIwLjkwMDk3OCAxMTcuNTg4NjIyIDg1LjgzNzMyODMgMTE3LjU4ODYyMiA4NS44MzczMjgzIDEzMS42ODk3OTMgMTIwLjkwMDk3OCAxMzEuNjg5NzkzIDEyMC45MDA5NzggMTY5LjU0NTI4NSAxMzUuMDk2Nzg3IDE2OS41NDUyODUgMTM1LjA5Njc4NyAxMzEuNjg5NzkzIDE3MC4xNjA0MzcgMTMxLjY4OTc5MyAxNzAuMTYwNDM3IDExNy41ODg2MjIgMTM1LjA5Njc4NyAxMTcuNTg4NjIyIDEzNS4wOTY3ODcgNzkuNzMzMTMwMiAxMjAuOTAwOTc4IDc5LjczMzEzMDIiIGZpbGw9IiNFODc2MkMiPiYjeGE7JiN4YTs8L3BvbHlnb24+JiN4YTsgICAgICAgIDxwb2x5Z29uIHBvaW50cz0iMjI0LjAwOTg3NCAxMDguMjE5Mzg4IDIyNC4wMDk4NzQgMTIwLjA5NjU0OSAyMDIuNjY4ODQxIDEyMC4wOTY1NDkgMjAyLjY2ODg0MSAxMjkuNzAyMzggMjI0LjAwOTg3NCAxMjkuNzAyMzggMjI0LjAwOTg3NCAxNTMuNDA5MzgyIDIzNC42NTY3MzEgMTUzLjQwOTM4MiAyMzQuNjU2NzMxIDEyOS43MDIzOCAyNTUuOTk3NzY1IDEyOS43MDIzOCAyNTUuOTk3NzY1IDEyMC4wOTY1NDkgMjM0LjY1NjczMSAxMjAuMDk2NTQ5IDIzNC42NTY3MzEgOTYuMzg5NTQ2NyAyMjQuMDA5ODc0IDk2LjM4OTU0NjciIGZpbGw9IiM1QjY1OTEiPiYjeGE7JiN4YTs8L3BvbHlnb24+JiN4YTsgICAgICAgIDxwb2x5Z29uIHBvaW50cz0iMjAuODIwNTIwNiAxMDkuMjYwNDE0IDIwLjgyMDUyMDYgMTIwLjYxNzA2MiAwIDEyMC42MTcwNjIgMCAxMjguNjYxMzU0IDIwLjgyMDUyMDYgMTI4LjY2MTM1NCAyMC44MjA1MjA2IDE1MS4zNzQ2NDkgMjguOTU5NDUxNCAxNTEuMzc0NjQ5IDI4Ljk1OTQ1MTQgMTI4LjY2MTM1NCA1MC4zMDA0ODUxIDEyNy45MDQyNDQgNTAuMzAwNDg1MSAxMjAuNjE3MDYyIDI4Ljk1OTQ1MTQgMTIwLjYxNzA2MiAyOC45NTk0NTE0IDk3LjkwMzc2NjMgMjAuODIwNTIwNiA5Ny45MDM3NjYzIiBmaWxsPSIjNzA5OUE2Ij4mI3hhOyYjeGE7PC9wb2x5Z29uPiYjeGE7ICAgICAgICA8cG9seWdvbiBwb2ludHM9IjU1Ljg4NDE3MDIgMTYyLjczMTI5NyA1NS44ODQxNzAyIDE3OS42MjQzMSAyNC4zNjk0NzMgMTc5LjYyNDMxIDI0LjM2OTQ3MyAxOTAuNzQ0MzYxIDU1Ljg4NDE3MDIgMTkwLjc0NDM2MSA1NS44ODQxNzAyIDIyNC41MzAzODcgNjguMDQ1MjQ3IDIyNC41MzAzODcgNjguMDQ1MjQ3IDE5MC43NDQzNjEgOTkuNTU5OTQ0MSAxOTAuNzQ0MzYxIDk5LjU1OTk0NDEgMTc5LjYyNDMxIDY4LjA0NTI0NyAxNzkuNjI0MzEgNjguMDQ1MjQ3IDE0NS44MzgyODMgNTUuODg0MTcwMiAxNDUuODM4MjgzIiBmaWxsPSIjQzcyMDM1Ij4mI3hhOyYjeGE7PC9wb2x5Z29uPiYjeGE7ICAgICAgICA8cG9seWdvbiBwb2ludHM9IjE4Ny45NTI1MTggMTYyLjczMTI5NyAxODcuOTUyNTE4IDE3OS42MjQzMSAxNTYuNDM3ODIxIDE3OS42MjQzMSAxNTYuNDM3ODIxIDE5MC4yMjM4NDggMTg3Ljk1MjUxOCAxOTAuMjIzODQ4IDE4Ny45NTI1MTggMjI0LjUzMDM4NyAyMDAuMTEzNTk1IDIyNC41MzAzODcgMjAwLjExMzU5NSAxOTAuMjIzODQ4IDIzMS42MjgyOTIgMTkwLjIyMzg0OCAyMzEuNjI4MjkyIDE3OS42MjQzMSAyMDAuMTEzNTk1IDE3OS42MjQzMSAyMDAuMTEzNTk1IDE0NS44MzgyODMgMTg3Ljk1MjUxOCAxNDUuODM4MjgzIiBmaWxsPSIjMUY0NDdFIj4mI3hhOyYjeGE7PC9wb2x5Z29uPiYjeGE7ICAgICAgICA8cG9seWdvbiBwb2ludHM9IjEyMi45MzU3MSAyMDUuNjQ5OTYxIDEyMi45MzU3MSAyMTcuNDc5ODAyIDEwMS41OTQ2NzcgMjE3LjQ3OTgwMiAxMDEuNTk0Njc3IDIyNy4wODU2MzMgMTIyLjkzNTcxIDIyNy4wODU2MzMgMTIyLjkzNTcxIDI1MC43OTI2MzUgMTMzLjU4MjU2OCAyNTAuNzkyNjM1IDEzMy41ODI1NjggMjI3LjA4NTYzMyAxNTQuOTIzNjAxIDIyNy4wODU2MzMgMTU0LjkyMzYwMSAyMTcuNDc5ODAyIDEzMy41ODI1NjggMjE3LjQ3OTgwMiAxMzMuNTgyNTY4IDE5My43NzI4IDEyMi45MzU3MSAxOTMuNzcyOCIgZmlsbD0iIzVCNjU5MSI+JiN4YTsmI3hhOzwvcG9seWdvbj4mI3hhOyAgICA8L2c+JiN4YTs8L3N2Zz4=;" vertex="1" parent="1">
          <mxGeometry x="737.97" y="215.59" width="39.76" height="38.96" as="geometry" />
        </mxCell>
        <mxCell id="T6LOzxxRdkaR8oqZ5aBJ-43" value="" style="editableCssRules=.*;html=1;shape=image;verticalLabelPosition=bottom;labelBackgroundColor=#ffffff;verticalAlign=top;aspect=fixed;imageAspect=0;image=data:image/svg+xml,PHN2ZyB4bWxucz0iaHR0cDovL3d3dy53My5vcmcvMjAwMC9zdmciIHhtbG5zOnY9Imh0dHBzOi8vdmVjdGEuaW8vbmFubyIgd2lkdGg9IjE2Ljk3OTk5OTU0MjIzNjMyOCIgaGVpZ2h0PSIyMCIgdmlld0JveD0iMCAwIDE2Ljk3OTk5OTU0MjIzNjMyOCAyMCI+JiN4YTsJPHN0eWxlIHR5cGU9InRleHQvY3NzIj4uc3QwIHsgZmlsbDogbGlnaHQtZGFyayhyZ2IoMjU1LCAyMDAsIDApLCByZ2IoMTE3LCA3MCwgMCkpOyB9IC5zdDEgeyBmaWxsOiBsaWdodC1kYXJrKHJnYigyNTAsIDAsIDApLCByZ2IoMjU1LCAxNDYsIDE0NikpOyB9IC5zdDIgeyBmaWxsOiBsaWdodC1kYXJrKHJnYigyMzYsIDIyNSwgMTcyKSwgcmdiKDU2LCA0NiwgMSkpOyB9IDwvc3R5bGU+JiN4YTsJPGcgY2xhc3M9InN0MCI+JiN4YTsJCTxwYXRoIGQ9Ik04LjQ5IDEwLjI5TC4yNCA1LjM1IDguNDkuNThsOC4yNCA0LjY3ek0xLjc2IDUuMzZsNi43MiA0IDYuNzItNC4xMS02LjcxLTMuNzh6Ii8+JiN4YTsJCTxwYXRoIGQ9Ik04LjQ5IDE5LjQ0TC4yMSAxMy44OSA4LjQ5IDkuM2w4LjE1IDQuNjR6bS02LjgtNS41bDYuOCA0LjU2IDYuNy00LjUtNi43LTMuODJ6Ii8+JiN4YTsJPC9nPiYjeGE7CTxnIGNsYXNzPSJzdDEiPiYjeGE7CQk8cGF0aCBkPSJNLjYxMyA1LjUwMmwuNjc1LS4zNzEgNy40NzcgMTMuNi0uNjc1LjM3MXoiLz4mI3hhOwkJPHBhdGggZD0iTTguMTk0IDE4LjgyNmw3LjMwMS0xMy41NTkuNjc4LjM2NS03LjMwMSAxMy41NTl6TS43MTYgMTMuNjg3TDguMDk2LjkwNGwuNjY3LjM4NS03LjM4IDEyLjc4M3oiLz4mI3hhOwkJPHBhdGggZD0iTTguMTk0IDEuMjE0bC42NjktLjM4MSA3LjQwNSAxMi45ODctLjY2OS4zODF6Ii8+JiN4YTsJCTxwYXRoIGQ9Ik04LjEzLjk2aC43N1YxOC45aC0uNzd6TS41NSA1LjQzaC43N3Y4LjY2SC41NXptMTQuOTctLjA5aC43N1YxNGgtLjc3eiIvPiYjeGE7CTwvZz4mI3hhOwk8ZyBjbGFzcz0ic3QyIj4mI3hhOwkJPGNpcmNsZSBjeD0iOC41MiIgY3k9IjEuMDciIHI9IjEuMDciLz4mI3hhOwkJPGNpcmNsZSBjeD0iMTUuOTEiIGN5PSI1LjM0IiByPSIxLjA3Ii8+JiN4YTsJCTxjaXJjbGUgY3g9IjEuMDciIGN5PSI1LjM0IiByPSIxLjA3Ii8+JiN4YTsJCTxjaXJjbGUgY3g9IjguNTIiIGN5PSI5LjkzIiByPSIxLjY4Ii8+JiN4YTsJCTxjaXJjbGUgY3g9IjE1LjkxIiBjeT0iMTMuOTQiIHI9IjEuMDciLz4mI3hhOwkJPGNpcmNsZSBjeD0iMS4wNyIgY3k9IjEzLjk0IiByPSIxLjA3Ii8+JiN4YTsJCTxjaXJjbGUgY3g9IjguNTIiIGN5PSIxOC45MyIgcj0iMS4wNyIvPiYjeGE7CQk8cGF0aCBkPSJNOC40OSAxMC4yOUwuMjQgNS4zNSA4LjQ5LjU4bDguMjQgNC42N3pNMS43NiA1LjM2bDYuNzIgNCA2LjcyLTQuMTEtNi43MS0zLjc4eiIvPiYjeGE7CQk8cGF0aCBkPSJNOC40OSAxOS40NEwuMjEgMTMuODkgOC40OSA5LjNsOC4xNSA0LjY0em0tNi44LTUuNWw2LjggNC41NiA2LjctNC41LTYuNy0zLjgyeiIvPiYjeGE7CQk8cGF0aCBkPSJNLjYxMyA1LjUwMmwuNjc1LS4zNzEgNy40NzcgMTMuNi0uNjc1LjM3MXoiLz4mI3hhOwkJPHBhdGggZD0iTTguMTk0IDE4LjgyNmw3LjMwMS0xMy41NTkuNjc4LjM2NS03LjMwMSAxMy41NTl6TS43MTYgMTMuNjg3TDguMDk2LjkwNGwuNjY3LjM4NS03LjM4IDEyLjc4M3oiLz4mI3hhOwkJPHBhdGggZD0iTTguMTk0IDEuMjE0bC42NjktLjM4MSA3LjQwNSAxMi45ODctLjY2OS4zODF6Ii8+JiN4YTsJCTxwYXRoIGQ9Ik04LjEzLjk2aC43N1YxOC45aC0uNzd6TS41NSA1LjQzaC43N3Y4LjY2SC41NXptMTQuOTctLjA5aC43N1YxNGgtLjc3eiIvPiYjeGE7CTwvZz4mI3hhOwk8ZyBjbGFzcz0ic3QwIj4mI3hhOwkJPGNpcmNsZSBjeD0iOC41MiIgY3k9IjEuMDciIHI9IjEuMDciLz4mI3hhOwkJPGNpcmNsZSBjeD0iMTUuOTEiIGN5PSI1LjM0IiByPSIxLjA3Ii8+JiN4YTsJCTxjaXJjbGUgY3g9IjEuMDciIGN5PSI1LjM0IiByPSIxLjA3Ii8+JiN4YTsJCTxjaXJjbGUgY3g9IjguNTIiIGN5PSI5LjkzIiByPSIxLjY4Ii8+JiN4YTsJCTxjaXJjbGUgY3g9IjE1LjkxIiBjeT0iMTMuOTQiIHI9IjEuMDciLz4mI3hhOwkJPGNpcmNsZSBjeD0iMS4wNyIgY3k9IjEzLjk0IiByPSIxLjA3Ii8+JiN4YTsJCTxjaXJjbGUgY3g9IjguNTIiIGN5PSIxOC45MyIgcj0iMS4wNyIvPiYjeGE7CTwvZz4mI3hhOzwvc3ZnPg==;" vertex="1" parent="1">
          <mxGeometry x="709.23" y="460" width="54.4" height="64" as="geometry" />
        </mxCell>
        <mxCell id="T6LOzxxRdkaR8oqZ5aBJ-45" value="" style="sketch=0;html=1;aspect=fixed;strokeColor=none;shadow=0;fillColor=#3B8DF1;verticalAlign=top;labelPosition=center;verticalLabelPosition=bottom;shape=mxgraph.gcp2.search" vertex="1" parent="1">
          <mxGeometry x="713" y="337" width="52.47" height="53" as="geometry" />
        </mxCell>
        <mxCell id="T6LOzxxRdkaR8oqZ5aBJ-46" value="BI &amp;amp; Reporting" style="text;html=1;align=center;verticalAlign=middle;whiteSpace=wrap;rounded=0;" vertex="1" parent="1">
          <mxGeometry x="705" y="264" width="85" height="30" as="geometry" />
        </mxCell>
        <mxCell id="T6LOzxxRdkaR8oqZ5aBJ-47" value="Ad-Hoc&lt;div&gt;SQL Queries&lt;/div&gt;" style="text;html=1;align=center;verticalAlign=middle;whiteSpace=wrap;rounded=0;" vertex="1" parent="1">
          <mxGeometry x="700.73" y="400" width="77" height="30" as="geometry" />
        </mxCell>
        <mxCell id="T6LOzxxRdkaR8oqZ5aBJ-48" value="Machine Learning" style="text;html=1;align=center;verticalAlign=middle;whiteSpace=wrap;rounded=0;" vertex="1" parent="1">
          <mxGeometry x="705.47" y="540" width="64.53" height="30" as="geometry" />
        </mxCell>
      </root>
    </mxGraphModel>
  </diagram>
</mxfile>
